<svg id="Layer_2" xmlns="http://www.w3.org/2000/svg" viewBox="0 0 997.72 238.19"><defs><style>.cls-1{fill:#fff}.cls-2{fill:#ff1970}.cls-3{isolation:isolate}</style></defs><g id="Layer_1-2"><g id="logo"><path class="cls-2" d="M850.6 117.58l2.59 91.19c.22 7.86 10.36 10.85 14.81 4.37l55.61-80.89-73.01-14.67z"/><path class="cls-1" d="M790.83 54.92l132.78 77.33 73.14-106.38c2.65-3.85-.48-9.03-5.12-8.48l-197.9 23.54c-7.19.85-9.16 10.35-2.9 13.99M28.9 101.87a4.07 4.07 0 0 1 4.54 4.04v73.35c0 4.75 1.14 12.93 3.8 17.49 4.18 8.55 15.96 14.26 35.35 14.26s31.17-5.7 35.54-14.26c2.66-4.56 3.8-12.73 3.8-17.49v-70.39c0-2.06 1.55-3.8 3.6-4.04l25.12-2.95c2.42-.28 4.55 1.61 4.55 4.04v80.57c0 11.4-2.28 23.76-8.93 31.17-12.16 13.69-33.64 20.53-63.67 20.53s-51.51-6.84-63.48-20.53C2.47 210.25 0 197.89 0 186.49v-77.61c0-2.07 1.55-3.8 3.6-4.04l25.3-2.97zm327.38 2.96l25.31-2.96a4.07 4.07 0 0 1 4.54 4.04v124.4c0 2.25-1.82 4.07-4.07 4.07h-25.31c-2.25 0-4.07-1.82-4.07-4.07V108.87c0-2.06 1.54-3.8 3.6-4.04m64.01-3.49h111.36c3.28 0 5.21 3.67 3.36 6.37l-10.81 15.75a8.145 8.145 0 0 1-6.71 3.53H449.3v28.51h55.58c2.25 0 4.07 1.82 4.07 4.07v16.38c0 2.25-1.82 4.07-4.07 4.07H449.3v50.29c0 2.25-1.82 4.07-4.07 4.07h-24.94c-2.25 0-4.07-1.82-4.07-4.06v-124.9a4.07 4.07 0 0 1 4.07-4.08m136.23 0h123.9c3.28 0 5.21 3.68 3.35 6.38l-10.85 15.76a8.136 8.136 0 0 1-6.71 3.52h-33.03v103.31c0 2.25-1.82 4.07-4.07 4.07H603.8c-2.25 0-4.07-1.82-4.07-4.07V127h-43.22c-2.25 0-4.07-1.82-4.07-4.07v-17.52a4.089 4.089 0 0 1 4.08-4.07m246.84 24.42c-1.99 2.89-5.59 4.14-8.97 3.19-8.45-2.38-19.11-4.43-31.98-4.43-14.44 0-25.66 2.47-33.45 7.22-10.07 6.08-16.54 16.92-16.54 35.73 0 31.93 18.82 43.33 50.37 43.33 19.11 0 32.16-4.14 41.76-7.6 2.06-.74 4.32.28 5.14 2.31l7.13 17.63c.83 2.05-.11 4.38-2.14 5.26-9.01 3.91-25.56 9.78-52.27 9.78-50.75 0-82.49-21.1-82.49-69.75 0-31.93 13.12-52.27 33.26-62.15 11.78-5.89 27.37-8.74 47.14-8.74s35 3.39 50.24 8.65c2.56.88 3.58 3.95 2.05 6.18l-9.25 13.39zm-502.63-20.05c-10.84-5.51-22.43-8.17-40.1-8.17-2.89 0-5.7.18-8.43.49l-.22.03s-.11.01-.17.02l-72.96 8.67a4.034 4.034 0 0 0-3.56 4.01v119.56c0 2.25 1.82 4.07 4.07 4.07h25.31c2.25 0 4.07-1.82 4.07-4.07l-.02-103.12s23.19-2.24 38.41-2.82c1.8-.09 0 .04 0 .04 1.79-.16 3.57-.26 5.32-.26 9.32 0 17.87 1.33 24.33 4.37 6.65 3.61 12.55 11.4 12.55 22.05v79.75c0 2.25 1.82 4.07 4.07 4.07h25.12c2.25 0 4.07-1.82 4.07-4.07v-87.16c0-19.98-10.64-31.38-21.86-37.46"/><g class="cls-3"><path class="cls-1" d="M33.76 57.88l-4.64-9.28c-3.21-6.41-6.58-11.81-9.45-14.51h-8.26v23.37h-8.1V1.18C9.72.42 14.78 0 19.59 0c10.12 0 18.56 4.3 18.56 16.37 0 7.85-4.81 13.41-11.56 15.27 3.12 2.62 6.58 7.09 9.62 12.91l6.33 12.32c-2.62.67-5.99 1.01-8.77 1.01zM19.25 6.67c-2.45 0-5.65.25-7.85.51v20.41h6.92c7.26 0 11.47-3.38 11.47-10.8S25.82 6.67 19.24 6.67zm67.66 50.78H54.43V.59h31.81c0 2.19-.25 4.98-.67 7.25H62.71v16.37H80v7.17H62.71v18.81H87.6c0 2.28-.25 4.89-.67 7.26zm33.58.76c-5.31 0-13.25-.34-19.07-1.18V1.18C106.23.51 115.34 0 120.4 0c14.09 0 25.14 8.1 25.14 27.84s-10.55 30.37-25.06 30.37zm-.34-50.96c-2.95 0-7.09.08-10.46.51v42.69c2.78.25 7.42.51 10.38.51 10.88 0 16.62-7.17 16.62-22.19 0-17.13-8.18-21.51-16.54-21.51zm72.31 50.2h-32.48V.59h31.81c0 2.19-.25 4.98-.67 7.25h-22.86v16.37h17.29v7.17h-17.29v18.81h24.89c0 2.28-.25 4.89-.67 7.26z"/></g></g></g></svg>